<?xml version="1.0" encoding="UTF-8" standalone="no"?>
<!-- Created with Inkscape (http://www.inkscape.org/) -->

<svg
   width="166.06799mm"
   height="182.6404mm"
   viewBox="0 0 166.06799 182.6404"
   version="1.1"
   id="svg1"
   xml:space="preserve"
   xmlns="http://www.w3.org/2000/svg"
   xmlns:svg="http://www.w3.org/2000/svg"><defs
     id="defs1" /><g
     id="layer1"
     transform="translate(-24.29279,-10.122485)"><path
       style="fill:#7b42bc;fill-opacity:1"
       d="m 105.24566,192.65186 c -5.317892,-0.83648 -9.877242,-4.6492 -11.547468,-9.65648 -0.439836,-1.31862 -0.59936,-2.2565 -0.679794,-3.9967 l -0.105096,-2.27377 -0.947002,-0.58268 c -1.744447,-1.07334 -17.037963,-9.98725 -36.35168,-21.18778 l -8.539099,-4.95204 -1.407318,0.80589 c -2.121546,1.21489 -3.734276,1.68061 -6.246654,1.80387 -8.06732,0.39581 -14.662162,-5.40851 -15.102031,-13.29175 -0.253104,-4.53609 1.290972,-8.36472 4.652274,-11.5356 1.505162,-1.4199 3.768652,-2.80521 5.27056,-3.22572 l 0.895188,-0.25063 -0.05264,-21.9576 -0.05265,-21.957586 -1.289568,-0.46161 c -1.974219,-0.70669 -3.681671,-1.83265 -5.402267,-3.56248 -1.239189,-1.24583 -1.762948,-1.97451 -2.516951,-3.5017 -1.24407,-2.51979 -1.628247,-4.35436 -1.498962,-7.15805 0.180494,-3.91424 1.669971,-7.1183 4.576136,-9.84387 4.582189,-4.29746 11.466106,-5.06021 16.863072,-1.86847 l 1.092664,0.64619 1.675926,-1.00177 c 0.921759,-0.55098 5.459666,-3.19882 10.084237,-5.88409 12.187005,-7.07643 15.591393,-9.05577 25.532555,-14.84484 l 8.921014,-5.19501 v -2.99898 c 0,-2.59069 0.06493,-3.19442 0.476935,-4.43455 2.066682,-6.22067 7.403469,-10.15719 13.776179,-10.16156 2.63539,-0.002 4.00063,0.32661 6.54281,1.57394 5.27526,2.58831 8.3422,8.22064 7.80297,14.32988 -0.0796,0.90236 -0.13308,1.65214 -0.11874,1.66619 0.0143,0.014 1.45651,0.84968 3.20483,1.85696 1.74831,1.00728 12.15441,7.02848 23.12465,13.38044 l 19.94591,11.54901 1.38249,-0.7234 c 2.33647,-1.22257 4.12742,-1.66544 6.7146,-1.66039 4.19602,0.008 7.23165,1.2563 10.17811,4.18477 1.49207,1.48296 1.91655,2.06316 2.70497,3.69728 1.51084,3.13145 1.9008,5.97914 1.25656,9.17602 -0.95955,4.76148 -4.65966,9.09873 -9.16291,10.7407 l -1.18274,0.43124 v 22.095606 22.09561 l 0.59644,0.11929 c 0.32804,0.0656 1.32011,0.46803 2.20461,0.89428 2.13072,1.02681 4.95492,3.78178 6.05637,5.90791 1.32123,2.55037 1.70276,4.15339 1.68395,7.07528 -0.0141,2.18933 -0.0954,2.80299 -0.55683,4.20416 -1.4724,4.47077 -4.99247,7.98781 -9.3693,9.36123 -1.29908,0.40764 -1.96834,0.48234 -4.30669,0.4807 -3.18876,-0.002 -4.7328,-0.38714 -7.09826,-1.76943 -0.74376,-0.43463 -1.412,-0.75753 -1.48498,-0.71755 -1.34051,0.7343 -21.69916,12.59456 -33.25324,19.37221 -4.90656,2.87819 -9.71666,5.69842 -10.68912,6.26716 l -1.76811,1.03408 -0.10726,2.36593 c -0.18183,4.01081 -1.29339,6.47983 -4.25213,9.44501 -1.95574,1.95999 -3.66721,2.98519 -6.11658,3.66395 -1.7823,0.4939 -4.41212,0.68262 -6.00994,0.4313 z m 29.14822,-32.1341 c 7.72642,-4.5003 17.30252,-10.06959 21.28023,-12.37619 5.25083,-3.04486 7.20635,-4.27809 7.13787,-4.50144 -0.81055,-2.64349 -0.97182,-3.55009 -0.985,-5.53718 -0.0173,-2.6028 0.34157,-4.15644 1.51567,-6.56258 1.43557,-2.94197 4.5536,-5.71062 7.59584,-6.74471 0.59824,-0.20334 1.06464,-0.43013 1.03644,-0.50396 -0.0282,-0.0738 -0.0513,-10.04248 -0.0513,-22.15256 V 80.120824 l -0.97413,-0.372 c -3.71774,-1.41973 -6.85458,-4.64149 -8.27806,-8.5022 -0.54729,-1.48432 -0.65802,-2.10959 -0.74571,-4.2105 -0.10167,-2.43612 -0.0108,-3.07803 0.8699,-6.14608 0.0917,-0.31928 -0.0541,-0.50488 -0.65796,-0.83764 -0.67678,-0.37297 -24.17144,-14.01809 -38.57829,-22.40532 -2.74433,-1.59766 -5.03972,-2.90483 -5.10089,-2.90483 -0.0612,0 -0.68239,0.53064 -1.3805,1.17921 -1.59528,1.48207 -3.44304,2.57217 -5.55064,3.27466 -1.44595,0.48195 -1.95704,0.54622 -4.3067,0.54162 -2.30356,-0.005 -2.88293,-0.0769 -4.26118,-0.53214 -1.99912,-0.66036 -3.979193,-1.83178 -5.630703,-3.33115 l -1.27846,-1.16071 -16.563537,9.69018 c -9.109945,5.32959 -19.084151,11.16063 -22.164902,12.95786 -4.46505,2.60479 -5.574389,3.33572 -5.468387,3.60306 0.928822,2.34247 1.219131,6.57804 0.613354,8.94876 -1.098014,4.2971 -4.560788,8.22569 -8.586874,9.74198 l -1.359626,0.51206 -0.0013,22.103876 c -0.0012,20.86912 0.01873,22.11066 0.357573,22.22506 0.19739,0.0666 1.097182,0.47266 1.999537,0.90226 1.786542,0.85056 3.475288,2.17931 4.808035,3.7831 1.040011,1.25151 2.359673,3.87809 2.777915,5.529 0.449882,1.77579 0.391674,5.37339 -0.116267,7.18601 -0.221256,0.78956 -0.42358,1.56653 -0.44961,1.72659 -0.04506,0.27709 4.978022,3.27306 22.614098,13.48795 3.440229,1.9926 9.324563,5.40435 13.076297,7.58167 3.751733,2.17733 7.092099,4.09879 7.423035,4.26992 l 0.601702,0.31116 1.076554,-1.1383 c 4.616696,-4.88148 12.212236,-5.98116 18.018246,-2.60868 0.73316,0.42586 2.02517,1.46677 2.87113,2.31313 l 1.53811,1.53883 0.61524,-0.33954 c 0.33838,-0.18675 6.93685,-4.02161 14.66327,-8.52192 z M 115.42391,145.06744 C 113.732,144.06515 107.8511,140.6346 102.35526,137.444 l -9.992453,-5.80109 -0.0052,-13.5866 c -0.0029,-7.47263 0.03229,-13.5866 0.07816,-13.5866 0.04587,0 2.699102,1.53225 5.896072,3.40502 3.196971,1.87276 9.065761,5.30212 13.041771,7.62081 l 7.22909,4.2158 v 13.60504 c 0,7.48277 -0.0231,13.59793 -0.0513,13.58923 -0.0282,-0.009 -1.43556,-0.83587 -3.12748,-1.83817 z m -0.92286,-30.7698 c -2.0867,-1.23575 -7.92381,-4.65839 -12.97136,-7.60586 l -9.177367,-5.35904 V 87.706544 74.080354 l 1.2028,0.68521 c 0.66154,0.37687 6.566347,3.82295 13.121807,7.65796 l 11.919,6.97275 0.003,13.586596 c 0.002,7.47263 -0.0658,13.58097 -0.15044,13.57409 -0.0846,-0.007 -1.8611,-1.02358 -3.9478,-2.25932 z m 6.61237,-11.90068 0.0527,-13.352196 9.22864,-5.43015 c 5.07575,-2.98658 10.69554,-6.301 12.48842,-7.36538 1.79288,-1.06437 3.26947,-1.91017 3.28129,-1.87954 0.0118,0.0306 -0.0246,6.07473 -0.081,13.43133 l -0.10254,13.375646 -3.17876,1.87789 c -13.17635,7.78406 -21.54533,12.69459 -21.63531,12.69459 -0.0584,0 -0.0825,-6.00849 -0.0535,-13.35219 z m -42.339292,-8.864526 -10.604523,-6.18697 -0.0084,-13.70784 -0.0084,-13.70784 1.207578,0.68521 c 0.664169,0.37687 5.505977,3.17695 10.759574,6.2224 l 9.551994,5.53718 0.0072,13.68914 c 0.0039,7.52902 -0.06205,13.68161 -0.146644,13.67242 -0.0846,-0.009 -4.925846,-2.80086 -10.758334,-6.2037 z"
       id="path1" /></g></svg>
